<svg width="56" height="20" viewBox="0 0 56 20" fill="none" xmlns="http://www.w3.org/2000/svg">
<g filter="url(#filter0_dd_8767_1510)">
<path d="M16.4379 5.47496C17.4427 5.47496 18.1963 4.74229 18.1963 3.73748C18.1963 2.75361 17.4427 2 16.4379 2C15.4331 2 14.6586 2.75361 14.6586 3.73748C14.6586 4.74229 15.4331 5.47496 16.4379 5.47496ZM17.993 15.1462C17.955 15.1462 17.9242 15.1154 17.9242 15.0774V6.94635C17.9242 6.90833 17.8933 6.8775 17.8553 6.8775H12.0689C12.0308 6.8775 12 6.90833 12 6.94635V9.29973C12 9.33776 12.0308 9.36858 12.0688 9.36858H14.8828C14.9208 9.36858 14.9516 9.39941 14.9516 9.43743V15.0774C14.9516 15.1154 14.9208 15.1462 14.8828 15.1462H12.0688C12.0308 15.1462 12 15.177 12 15.2151V17.5685C12 17.6065 12.0308 17.6373 12.0688 17.6373H18.9578C18.9958 17.6373 19.0267 17.6065 19.0267 17.5685V15.2151C19.0267 15.177 18.9958 15.1462 18.9578 15.1462H17.993Z" fill="#1E293B"/>
<path d="M27.9921 17.6373C28.0301 17.6373 28.0609 17.6065 28.0609 17.5685V15.2151C28.0609 15.177 28.0301 15.1462 27.9921 15.1462H25.5699C24.7953 15.1462 24.5023 14.8322 24.5023 14.0786V9.43743C24.5023 9.39941 24.5331 9.36858 24.5711 9.36858H27.9502C27.9882 9.36858 28.0191 9.33776 28.0191 9.29973V6.94635C28.0191 6.90833 27.9882 6.8775 27.9502 6.8775H24.5711C24.5331 6.8775 24.5023 6.84668 24.5023 6.80865V3.93193C24.5023 3.8939 24.4714 3.86308 24.4334 3.86308H21.6195C21.5815 3.86308 21.5506 3.8939 21.5506 3.93193V6.80865C21.5506 6.84668 21.5198 6.8775 21.4818 6.8775H19.0865C19.0485 6.8775 19.0177 6.90833 19.0177 6.94635V9.29973C19.0177 9.33776 19.0485 9.36858 19.0865 9.36858H21.4818C21.5198 9.36858 21.5506 9.39941 21.5506 9.43743V14.5601C21.5506 16.6116 22.5764 17.6373 24.6278 17.6373H27.9921Z" fill="#1E293B"/>
<path d="M33.4203 17.7629C36.2313 17.7629 38.0627 16.1302 38.4108 14.074C38.4178 14.0325 38.3855 13.9949 38.3434 13.9949H35.5674C35.5358 13.9949 35.5083 14.0166 35.5 14.0471C35.2345 15.0178 34.4468 15.523 33.3156 15.523C31.8921 15.523 30.9292 14.602 30.8664 13.0738V13.0171C30.8664 12.979 30.8972 12.9482 30.9353 12.9482H38.4284C38.4618 12.9482 38.4905 12.9243 38.4958 12.8913C38.5512 12.5505 38.5699 12.1802 38.5699 11.9225C38.549 8.76151 36.3928 6.7519 33.2319 6.7519C29.9453 6.7519 27.7892 8.92898 27.7892 12.2783C27.7892 15.6068 29.9035 17.7629 33.4203 17.7629ZM31.0077 11.0014C30.9661 11.0014 30.934 10.9645 30.9405 10.9235C31.1346 9.69301 32.0431 8.94991 33.2528 8.94991C34.5038 8.94991 35.373 9.65307 35.6047 10.9216C35.6123 10.9632 35.58 11.0014 35.5377 11.0014H31.0077Z" fill="#1E293B"/>
<path d="M50.13 6.73097C48.8727 6.73097 47.8904 7.26142 47.2022 8.18909C47.1716 8.23034 47.1078 8.22641 47.0819 8.18203C46.5438 7.25873 45.5465 6.73097 44.3733 6.73097C43.3625 6.73097 42.483 7.10628 41.8593 7.80361C41.8192 7.84847 41.743 7.82698 41.7347 7.76738L41.6184 6.9368C41.6136 6.9028 41.5845 6.8775 41.5502 6.8775H39.2925C39.2545 6.8775 39.2237 6.90833 39.2237 6.94635V17.5685C39.2237 17.6065 39.2545 17.6373 39.2925 17.6373H41.9808C42.0189 17.6373 42.0497 17.6065 42.0497 17.5685V11.127C42.0497 10.0594 42.573 9.28485 43.5778 9.28485C44.7292 9.28485 45.0432 10.1431 45.0432 11.127V17.5685C45.0432 17.6065 45.074 17.6373 45.112 17.6373H47.8213C47.8593 17.6373 47.8901 17.6065 47.8901 17.5685V11.1479C47.8901 10.0803 48.4344 9.28485 49.4392 9.28485C50.444 9.28485 50.8836 10.0594 50.8836 11.127V17.5685C50.8836 17.6065 50.9144 17.6373 50.9525 17.6373H53.6408C53.6788 17.6373 53.7096 17.6065 53.7096 17.5685V10.7293C53.7096 8.19631 52.3699 6.73097 50.13 6.73097Z" fill="#1E293B"/>
<path d="M8 12C8 13.6569 6.65685 15 5 15C3.34315 15 2 13.6569 2 12C2 10.3431 3.34315 9 5 9C6.65685 9 8 10.3431 8 12Z" fill="#FF4F00"/>
</g>
<defs>
<filter id="filter0_dd_8767_1510" x="0.623002" y="0.623002" width="54.4637" height="18.5167" filterUnits="userSpaceOnUse" color-interpolation-filters="sRGB">
<feFlood flood-opacity="0" result="BackgroundImageFix"/>
<feColorMatrix in="SourceAlpha" type="matrix" values="0 0 0 0 0 0 0 0 0 0 0 0 0 0 0 0 0 0 127 0" result="hardAlpha"/>
<feOffset/>
<feGaussianBlur stdDeviation="0.688499"/>
<feColorMatrix type="matrix" values="0 0 0 0 0.0318229 0 0 0 0 0.0974271 0 0 0 0 0.195833 0 0 0 0.06 0"/>
<feBlend mode="normal" in2="BackgroundImageFix" result="effect1_dropShadow_8767_1510"/>
<feColorMatrix in="SourceAlpha" type="matrix" values="0 0 0 0 0 0 0 0 0 0 0 0 0 0 0 0 0 0 127 0" result="hardAlpha"/>
<feOffset/>
<feGaussianBlur stdDeviation="0.516374"/>
<feColorMatrix type="matrix" values="0 0 0 0 0.0520312 0 0 0 0 0.166219 0 0 0 0 0.3375 0 0 0 0.06 0"/>
<feBlend mode="normal" in2="effect1_dropShadow_8767_1510" result="effect2_dropShadow_8767_1510"/>
<feBlend mode="normal" in="SourceGraphic" in2="effect2_dropShadow_8767_1510" result="shape"/>
</filter>
</defs>
</svg>
